<?xml version="1.0" encoding="UTF-8" standalone="no"?>
<svg
   xmlns:dc="http://purl.org/dc/elements/1.1/"
   xmlns:cc="http://creativecommons.org/ns#"
   xmlns:rdf="http://www.w3.org/1999/02/22-rdf-syntax-ns#"
   xmlns:svg="http://www.w3.org/2000/svg"
   xmlns="http://www.w3.org/2000/svg"
   xmlns:xlink="http://www.w3.org/1999/xlink"
   xmlns:sodipodi="http://sodipodi.sourceforge.net/DTD/sodipodi-0.dtd"
   xmlns:inkscape="http://www.inkscape.org/namespaces/inkscape"
   height="26"
   width="26"
   version="1.0"
   id="svg2"
   inkscape:version="0.91 r13725"
   sodipodi:docname="display_options.svg">
  <metadata
     id="metadata135">
    <rdf:RDF>
      <cc:Work
         rdf:about="">
        <dc:format>image/svg+xml</dc:format>
        <dc:type
           rdf:resource="http://purl.org/dc/dcmitype/StillImage" />
        <dc:title></dc:title>
      </cc:Work>
    </rdf:RDF>
  </metadata>
  <sodipodi:namedview
     pagecolor="#ffffff"
     bordercolor="#666666"
     borderopacity="1"
     objecttolerance="10"
     gridtolerance="10"
     guidetolerance="10"
     inkscape:pageopacity="0"
     inkscape:pageshadow="2"
     inkscape:window-width="1683"
     inkscape:window-height="737"
     id="namedview133"
     showgrid="false"
     inkscape:zoom="19.911115"
     inkscape:cx="12.964581"
     inkscape:cy="13.014528"
     inkscape:window-x="0"
     inkscape:window-y="0"
     inkscape:window-maximized="0"
     inkscape:current-layer="svg2" />
  <defs
     id="defs4">
    <linearGradient
       id="b">
      <stop
         stop-color="#fff"
         offset="0"
         id="stop7" />
      <stop
         stop-color="#fff"
         stop-opacity="0"
         offset="1"
         id="stop9" />
    </linearGradient>
    <linearGradient
       id="w"
       y2="7.0165"
       gradientUnits="userSpaceOnUse"
       x2="45.448002"
       gradientTransform="scale(1.0059,0.99417)"
       y1="92.540001"
       x1="45.448002">
      <stop
         offset="0"
         id="stop12" />
      <stop
         stop-opacity=".58824"
         offset="1"
         id="stop14" />
    </linearGradient>
    <filter
       id="x"
       style="color-interpolation-filters:sRGB">
      <feGaussianBlur
         stdDeviation="1.71"
         id="feGaussianBlur17" />
    </filter>
    <filter
       id="y"
       height="1.0908"
       width="1.3035001"
       y="-0.045378"
       x="-0.15174"
       style="color-interpolation-filters:sRGB">
      <feGaussianBlur
         stdDeviation="1.1526305"
         id="feGaussianBlur20" />
    </filter>
    <filter
       id="z"
       height="1.3025"
       width="1.0888"
       y="-0.15126"
       x="-0.044411998"
       style="color-interpolation-filters:sRGB">
      <feGaussianBlur
         stdDeviation="1.1526305"
         id="feGaussianBlur23" />
    </filter>
    <linearGradient
       id="c"
       y2="7.0165"
       gradientUnits="userSpaceOnUse"
       x2="45.448002"
       gradientTransform="matrix(1.0059,0,0,0.99417,100,0)"
       y1="92.540001"
       x1="45.448002">
      <stop
         offset="0"
         id="stop26" />
      <stop
         stop-opacity=".58824"
         offset="1"
         id="stop28" />
    </linearGradient>
    <linearGradient
       id="a"
       y2="90.238998"
       xlink:href="#c"
       gradientUnits="userSpaceOnUse"
       x2="32.250999"
       gradientTransform="matrix(1.0238,0,0,1.0119,-1.1429,-98.071)"
       y1="6.1317"
       x1="32.250999" />
    <linearGradient
       id="ad"
       y2="90.238998"
       xlink:href="#c"
       gradientUnits="userSpaceOnUse"
       x2="32.250999"
       gradientTransform="translate(0,-97)"
       y1="6.1317"
       x1="32.250999" />
    <linearGradient
       id="r"
       y2="5.9877"
       gradientUnits="userSpaceOnUse"
       x2="48"
       y1="90"
       x1="48">
      <stop
         stop-color="#b4b4b4"
         offset="0"
         id="stop33" />
      <stop
         stop-color="#e6e6e6"
         offset="1"
         id="stop35" />
    </linearGradient>
    <linearGradient
       id="s"
       y2="63.893002"
       gradientUnits="userSpaceOnUse"
       x2="36.356998"
       y1="6"
       x1="36.356998">
      <stop
         stop-color="#fff"
         offset="0"
         id="stop38" />
      <stop
         stop-color="#fff"
         stop-opacity="0"
         offset="1"
         id="stop40" />
    </linearGradient>
    <linearGradient
       id="t"
       y2="83.294998"
       gradientUnits="userSpaceOnUse"
       x2="43.179001"
       gradientTransform="matrix(1.0294,0,0,1.0294,-1.4118,-1.4118)"
       y1="13"
       x1="43.179001">
      <stop
         stop-color="#919191"
         offset="0"
         id="stop43" />
      <stop
         stop-color="#fdfdfd"
         offset="1"
         id="stop45" />
    </linearGradient>
    <radialGradient
       id="v"
       gradientUnits="userSpaceOnUse"
       cy="90.171997"
       cx="48"
       gradientTransform="matrix(1.1573,0,0,0.99591,-7.551,0.19713)"
       r="42">
      <stop
         stop-color="#fff"
         offset="0"
         id="stop48" />
      <stop
         stop-color="#fff"
         stop-opacity="0"
         offset="1"
         id="stop50" />
    </radialGradient>
    <radialGradient
       id="u"
       gradientUnits="userSpaceOnUse"
       cy="78.287003"
       cx="47.098"
       gradientTransform="matrix(0.67545,0,0,0.64872,-7.9528,-34.064)"
       r="38.957001">
      <stop
         stop-color="#42394b"
         offset="0"
         id="stop53" />
      <stop
         offset="1"
         id="stop55" />
    </radialGradient>
    <linearGradient
       id="aa"
       y2="52.101002"
       gradientUnits="userSpaceOnUse"
       x2="19.941999"
       gradientTransform="matrix(0.32537,0,0,0.32046,2.4094,-8.924)"
       y1="52.101002"
       x1="80.710999">
      <stop
         stop-color="#fff"
         offset="0"
         id="stop58" />
      <stop
         stop-color="#fff"
         stop-opacity="0"
         offset="1"
         id="stop60" />
    </linearGradient>
    <linearGradient
       id="ab"
       y2="52.101002"
       xlink:href="#b"
       gradientUnits="userSpaceOnUse"
       x2="19.941999"
       gradientTransform="matrix(0.32147,0,0,0.32434,2.2605,-9.333)"
       y1="52.101002"
       x1="80.710999" />
    <linearGradient
       id="ac"
       y2="52.101002"
       xlink:href="#b"
       gradientUnits="userSpaceOnUse"
       x2="19.941999"
       gradientTransform="matrix(0,-0.32537,0.32046,0,-3.9466,24.434)"
       y1="52.101002"
       x1="80.710999" />
    <linearGradient
       id="ae"
       y2="52.101002"
       xlink:href="#b"
       gradientUnits="userSpaceOnUse"
       x2="19.941999"
       gradientTransform="matrix(0,-0.32537,0.32046,0,-4.1176,24.434)"
       y1="52.101002"
       x1="80.710999" />
    <linearGradient
       inkscape:collect="always"
       xlink:href="#c"
       id="linearGradient4263"
       gradientUnits="userSpaceOnUse"
       gradientTransform="matrix(1.0238,0,0,1.0119,-1.1429,-98.071)"
       x1="32.250999"
       y1="6.1317"
       x2="32.250999"
       y2="90.238998" />
    <linearGradient
       inkscape:collect="always"
       xlink:href="#c"
       id="linearGradient4265"
       gradientUnits="userSpaceOnUse"
       gradientTransform="matrix(1.0238,0,0,1.0119,-1.1429,-98.071)"
       x1="32.250999"
       y1="6.1317"
       x2="32.250999"
       y2="90.238998" />
    <linearGradient
       inkscape:collect="always"
       xlink:href="#c"
       id="linearGradient4267"
       gradientUnits="userSpaceOnUse"
       gradientTransform="matrix(1.0238,0,0,1.0119,-1.1429,-98.071)"
       x1="32.250999"
       y1="6.1317"
       x2="32.250999"
       y2="90.238998" />
  </defs>
  <g
     display="none"
     transform="translate(0,-70)"
     id="g65"
     style="display:none">
    <rect
       rx="6"
       ry="6"
       height="85"
       width="86"
       y="7"
       x="5"
       id="rect67"
       style="opacity:0.9;fill:url(#w);filter:url(#x)" />
  </g>
  <g
     id="g4269"
     transform="matrix(0.57775502,0,0,0.57797146,-1.0748374,11.612886)">
    <g
       id="g77"
       transform="matrix(0.48839,0,0,0.4943,0.85723,-22.093016)">
      <path
         style="opacity:0.07999998;fill:url(#linearGradient4263)"
         inkscape:connector-curvature="0"
         id="path79"
         transform="scale(1,-1)"
         d="m 12,-95.031 c -5.5111,0 -10.031,4.5202 -10.031,10.031 l 0,71 c 0,5.5111 4.5202,10.031 10.031,10.031 l 72,0 c 5.5111,0 10.031,-4.5202 10.031,-10.031 l 0,-71 c 0,-5.5111 -4.5202,-10.031 -10.031,-10.031 l -72,0 z" />
      <path
         style="opacity:0.1;fill:url(#linearGradient4265)"
         inkscape:connector-curvature="0"
         id="path81"
         transform="scale(1,-1)"
         d="m 12,-94.031 c -4.9716,0 -9.0312,4.0596 -9.0312,9.0312 l 0,71 c 0,4.9716 4.0596,9.0312 9.0312,9.0312 l 72,0 c 4.9716,0 9.0312,-4.0596 9.0312,-9.0312 l 0,-71 c 0,-4.9716 -4.0596,-9.0312 -9.0312,-9.0312 l -72,0 z" />
      <path
         style="opacity:0.2;fill:url(#linearGradient4267)"
         inkscape:connector-curvature="0"
         id="path83"
         transform="scale(1,-1)"
         d="m 12,-93 c -4.4091,0 -8,3.5909 -8,8 l 0,71 c 0,4.4091 3.5909,8 8,8 l 72,0 c 4.4091,0 8,-3.5909 8,-8 l 0,-71 c 0,-4.4091 -3.5909,-8 -8,-8 l -72,0 z" />
      <rect
         style="opacity:0.3;fill:url(#a)"
         id="rect85"
         x="5"
         y="-92"
         width="86"
         height="85"
         ry="7"
         rx="7"
         transform="scale(1,-1)" />
      <rect
         style="opacity:0.45;fill:url(#ad)"
         id="rect87"
         x="6"
         y="-91"
         width="84"
         height="84"
         ry="6"
         rx="6"
         transform="scale(1,-1)" />
    </g>
    <rect
       style="fill:url(#u)"
       id="rect89"
       x="4.8332"
       y="-18.0128"
       width="38.053001"
       height="38.811001"
       ry="3.0515001"
       rx="2.8584001" />
    <path
       style="opacity:0.12000002;fill:#d9c6ed"
       inkscape:connector-curvature="0"
       id="path91"
       d="m 7.6947,-18.015 c -1.5836,0 -2.854,1.368 -2.854,3.0585 l 0,24.252 c 9.1933,-6.851 22.374,-11.762 38.048,-10.767 l 0,-13.486 c 0,-1.69 -1.286,-3.058 -2.87,-3.058 l -32.325,0 z" />
    <rect
       style="opacity:0.1;fill:#ffffff"
       id="rect93"
       x="12.579"
       y="5.5879993"
       width="7.8143001"
       height="7.9088998" />
    <g
       style="fill-rule:evenodd;filter:url(#y)"
       id="g95"
       transform="matrix(0,-0.32537,0.32046,0,-4.1176,24.928)">
      <path
         inkscape:connector-curvature="0"
         id="path97"
         d="m 48.808,61.281 44.058,4.5502 0,-9.1 -44.058,4.55 z" />
      <path
         style="stroke-width:0.625;stroke-linejoin:round"
         inkscape:connector-curvature="0"
         id="path99"
         d="m 89.91,52.101 19.667,9.1442 -19.667,9.1442 c 3.1419,-5.3987 3.1238,-12.785 10e-7,-18.288 z" />
    </g>
    <path
       style="fill:url(#ae);fill-rule:evenodd"
       inkscape:connector-curvature="0"
       id="path101"
       d="m 15.521,8.554 1.4582,-14.335 -2.9163,0 1.4582,14.335 z" />
    <path
       style="fill:url(#ac);fill-rule:evenodd;stroke-width:0.625;stroke-linejoin:round"
       inkscape:connector-curvature="0"
       id="path103"
       d="m 10.331,-4.238 5.274,-8.7053 5.105,8.7233 C 18.98,-5.242 12.244,-4.955 10.331,-4.238 Z" />
    <g
       style="fill-rule:evenodd;filter:url(#z)"
       id="g105"
       transform="matrix(0.32147,0,0,0.32434,2.2605,-8.839)">
      <path
         inkscape:connector-curvature="0"
         id="path107"
         d="m 47.289,61.281 45.577,4.5502 0,-9.1 -45.577,4.55 z" />
      <path
         style="stroke-width:0.625;stroke-linejoin:round"
         inkscape:connector-curvature="0"
         id="path109"
         d="m 89.91,52.101 19.667,9.1442 -19.667,9.1442 c 3.1419,-5.3987 3.1238,-12.785 10e-7,-18.288 z" />
    </g>
    <path
       style="fill:url(#ab);fill-rule:evenodd"
       inkscape:connector-curvature="0"
       id="path111"
       d="m 17.463,10.543 14.652,1.4758 0,-2.952 -14.652,1.476 z" />
    <rect
       style="opacity:0.2;fill:none;stroke:#ffffff;stroke-width:0.98268002;stroke-dasharray:0.98267661, 0.98267661;stroke-dashoffset:0.49134001"
       id="rect113"
       x="13.067"
       y="-0.83799934"
       width="13.675"
       height="13.84" />
    <path
       inkscape:connector-curvature="0"
       id="path115"
       d="m 10.137,-15.6671 c -1.6065,0 -2.9303,1.3399 -2.9303,2.9658 l 0,28.67 c 0,1.626 1.3238,2.9658 2.9303,2.9658 l 28.327,0 c 1.6065,0 2.9303,-1.3399 2.9303,-2.9658 l 0,-28.67 c 0,-1.626 -1.3238,-2.9658 -2.9303,-2.9658 l -28.327,0 z m 0,1.9772 28.327,0 c 0.55803,0 0.97678,0.42382 0.97678,0.98861 l 0,28.67 c 0,0.56479 -0.41875,0.98861 -0.97678,0.98861 l -28.327,0 c -0.55803,0 -0.97678,-0.42382 -0.97678,-0.98861 l 0,-28.67 c 0,-0.56479 0.41875,-0.98861 0.97678,-0.98861 z"
       style="color:#000000;text-indent:0;text-transform:none;block-progression:tb;opacity:0.15" />
    <path
       inkscape:connector-curvature="0"
       id="path117"
       d="m 9.1599,-15.1728 c -0.81171,0 -1.4652,0.66138 -1.4652,1.4829 l 0,30.647 c 0,0.82153 0.65347,1.4829 1.4652,1.4829 l 30.28,0 c 0.81171,0 1.4652,-0.66138 1.4652,-1.4829 l 0,-30.647 c 0,-0.82153 -0.65347,-1.4829 -1.4652,-1.4829 l -30.28,0 z m 0,0.95771 30.28,0 c 0.30191,0 0.51892,0.21964 0.51892,0.5252 l 0,30.647 c 0,0.30556 -0.21701,0.5252 -0.51892,0.5252 l -30.28,0 c -0.30191,0 -0.51892,-0.21964 -0.51892,-0.5252 l 0,-30.647 c 0,-0.30556 0.21701,-0.5252 0.51892,-0.5252 z"
       style="color:#000000;opacity:0.3" />
    <path
       inkscape:connector-curvature="0"
       id="path119"
       d="m 9.1599,-15.1728 c -0.81171,0 -1.4652,0.66138 -1.4652,1.4829 l 0,30.647 c 0,0.82153 0.65347,1.4829 1.4652,1.4829 l 30.28,0 c 0.81171,0 1.4652,-0.66138 1.4652,-1.4829 l 0,-30.647 c 0,-0.82153 -0.65347,-1.4829 -1.4652,-1.4829 l -30.28,0 z m 0,0.47886 30.28,0 c 0.55681,0 0.99204,0.44051 0.99204,1.0041 l 0,30.647 c 0,0.56355 -0.43524,1.0041 -0.99204,1.0041 l -30.28,0 c -0.55681,0 -0.99204,-0.44051 -0.99204,-1.0041 l 0,-30.647 c 0,-0.56355 0.43524,-1.0041 0.99204,-1.0041 z"
       style="color:#000000;opacity:0.6" />
    <g
       id="g121"
       transform="matrix(0.48839,0,0,0.4943,0.85723,-22.093016)">
      <path
         style="fill:url(#r)"
         inkscape:connector-curvature="0"
         id="path123"
         d="M 12,6 C 8.676,6 6,8.676 6,12 l 0,72 c 0,3.324 2.676,6 6,6 l 72,0 c 3.324,0 6,-2.676 6,-6 L 90,12 C 90,8.676 87.324,6 84,6 L 12,6 Z m 5,7 62,0 c 2.216,0 4,1.784 4,4 l 0,62 c 10e-7,2.216 -1.784,4 -4,4 l -62,0 c -2.216,10e-7 -4,-1.784 -4,-4 l 0,-62 c 0,-2.216 1.784,-4 4,-4 z" />
      <path
         style="opacity:0.5;fill:url(#s)"
         inkscape:connector-curvature="0"
         id="path125"
         d="M 12,6 C 8.676,6 6,8.676 6,12 l 0,72 c 0,0.33472 0.04135,0.6507 0.09375,0.96875 0.0487,0.2956 0.09704,0.59692 0.1875,0.875 0.00988,0.03038 0.020892,0.0636 0.03125,0.09375 0.098865,0.28777 0.23488,0.54745 0.375,0.8125 0.14459,0.27351 0.31562,0.53562 0.5,0.78125 0.18438,0.24564 0.37378,0.47347 0.59375,0.6875 0.43995,0.42806 0.94291,0.81453 1.5,1.0938 0.27854,0.13961 0.57347,0.24695 0.875,0.34375 -0.2562,-0.10022 -0.48671,-0.23627 -0.71875,-0.375 -0.00741,-0.0044 -0.023866,0.0045 -0.03125,0 -0.0319,-0.019 -0.0622,-0.042 -0.0937,-0.062 -0.1204,-0.077 -0.231,-0.164 -0.3437,-0.25 -0.1062,-0.081 -0.2133,-0.161 -0.3126,-0.25 -0.1778,-0.162 -0.3473,-0.346 -0.4999,-0.531 -0.1075,-0.131 -0.2183,-0.266 -0.3124,-0.407 -0.0251,-0.038 -0.0385,-0.086 -0.0626,-0.125 -0.0647,-0.103 -0.1302,-0.204 -0.1874,-0.312 -0.1011,-0.195 -0.2057,-0.416 -0.2813,-0.625 -0.008,-0.022 -0.0236,-0.041 -0.0313,-0.063 -0.0318,-0.092 -0.0358,-0.187 -0.0624,-0.281 -0.0304,-0.107 -0.0704,-0.203 -0.0938,-0.313 -0.0729,-0.341 -0.125,-0.698 -0.125,-1.062 l 0,-72 c 0,-2.782 2.2182,-5 5,-5 l 72,0 c 2.7818,0 5,2.2182 5,5 l 0,72 c 0,0.3643 -0.05212,0.72099 -0.125,1.0625 -0.04415,0.20689 -0.08838,0.39766 -0.15625,0.59375 -0.0077,0.02195 -0.0233,0.04069 -0.03125,0.0625 -0.06274,0.17374 -0.13838,0.36745 -0.21875,0.53125 -0.04158,0.0828 -0.07904,0.16995 -0.125,0.25 -0.0546,0.09721 -0.12677,0.18835 -0.1875,0.28125 -0.09411,0.14096 -0.20492,0.276 -0.3125,0.40625 -0.14317,0.17445 -0.30314,0.347 -0.46875,0.5 -0.01117,0.0102 -0.01998,0.02115 -0.03125,0.03125 -0.13839,0.12556 -0.28509,0.23444 -0.4375,0.34375 -0.10257,0.07315 -0.20432,0.15336 -0.3125,0.21875 -0.0074,0.0045 -0.02384,-0.0044 -0.03125,0 -0.23204,0.13873 -0.46255,0.27478 -0.71875,0.375 0.30153,-0.0968 0.59646,-0.20414 0.875,-0.34375 0.55709,-0.27922 1.0601,-0.66569 1.5,-1.0938 0.21997,-0.21403 0.40937,-0.44186 0.59375,-0.6875 0.18438,-0.24564 0.35541,-0.50774 0.5,-0.78125 0.14012,-0.26505 0.27614,-0.52473 0.375,-0.8125 0.01041,-0.03078 0.02133,-0.06274 0.03125,-0.09375 0.09046,-0.27808 0.1388,-0.5794 0.1875,-0.875 0.053,-0.318 0.094,-0.634 0.094,-0.969 l 0,-72 c 0,-3.324 -2.676,-6 -6,-6 l -72,0 z" />
      <path
         style="fill:url(#t)"
         inkscape:connector-curvature="0"
         id="path127"
         d="m 17,12 c -2.7527,0 -5,2.2473 -5,5 l 0,62 c 0,2.7527 2.2473,5 5,5 l 62,0 c 2.7527,0 5,-2.2473 5,-5 l 0,-62 c 0,-2.7527 -2.2473,-5 -5,-5 l -62,0 z m 0,2 62,0 c 1.6793,0 3,1.3207 3,3 l 0,62 c 10e-7,1.6793 -1.3207,3 -3,3 l -62,0 c -1.6793,0 -3,-1.3207 -3,-3 l 0,-62 c 0,-1.6793 1.3207,-3 3,-3 z" />
      <path
         style="opacity:0.4;fill:url(#v)"
         inkscape:connector-curvature="0"
         id="path129"
         d="M 12,90 C 8.676,90 6,87.324 6,84 L 6,12 c 0,-0.33472 0.04135,-0.6507 0.09375,-0.96875 0.0487,-0.2956 0.09704,-0.59692 0.1875,-0.875 0.0099,-0.03 0.0209,-0.063 0.0313,-0.094 0.0989,-0.2873 0.2349,-0.547 0.375,-0.812 0.1446,-0.2735 0.3156,-0.5356 0.5,-0.7812 0.1844,-0.2457 0.3738,-0.4735 0.5937,-0.6876 0.44,-0.428 0.943,-0.8145 1.5,-1.0937 0.2786,-0.1396 0.5735,-0.2469 0.8748,-0.3437 -0.256,0.1002 -0.4865,0.2362 -0.7185,0.375 -0.00741,0.0044 -0.023866,-0.0045 -0.03125,0 -0.031933,0.0193 -0.062293,0.04251 -0.09375,0.0625 -0.1204,0.0767 -0.23102,0.16351 -0.34375,0.25 -0.10617,0.0808 -0.21328,0.16111 -0.3125,0.25 -0.1779,0.1614 -0.3474,0.3453 -0.5,0.5312 -0.1075,0.1303 -0.2183,0.2653 -0.3124,0.4063 -0.0251,0.0383 -0.0385,0.0858 -0.0626,0.125 -0.0647,0.103 -0.1302,0.2045 -0.1874,0.3124 -0.1011,0.1948 -0.2057,0.4158 -0.2813,0.625 -0.008,0.0219 -0.0236,0.0406 -0.0313,0.0626 -0.0318,0.0919 -0.0358,0.1868 -0.0624,0.2812 -0.0304,0.1066 -0.0704,0.203 -0.0938,0.3125 -0.0729,0.3415 -0.125,0.6985 -0.125,1.0625 l 0,72 c 0,2.7818 2.2182,5 5,5 l 72,0 c 2.7818,0 5,-2.2182 5,-5 l 0,-72 c 0,-0.364 -0.052,-0.721 -0.125,-1.0625 -0.044,-0.2069 -0.088,-0.3977 -0.156,-0.5937 -0.008,-0.022 -0.024,-0.0407 -0.031,-0.0626 -0.063,-0.1737 -0.139,-0.3674 -0.219,-0.5312 -0.042,-0.0828 -0.079,-0.17 -0.125,-0.25 -0.055,-0.0972 -0.127,-0.1884 -0.188,-0.2812 -0.094,-0.141 -0.205,-0.276 -0.312,-0.4063 -0.143,-0.1745 -0.303,-0.347 -0.469,-0.5 -0.011,-0.0102 -0.02,-0.0211 -0.031,-0.0313 -0.139,-0.1255 -0.285,-0.2344 -0.438,-0.3437 -0.102,-0.0731 -0.204,-0.1534 -0.312,-0.2187 -0.0074,-0.0045 -0.02384,0.0044 -0.03125,0 -0.23204,-0.13873 -0.46255,-0.27478 -0.71875,-0.375 0.30153,0.0968 0.59646,0.20414 0.875,0.34375 0.55709,0.27922 1.0601,0.66569 1.5,1.0938 0.21997,0.21403 0.40937,0.44186 0.59375,0.6875 0.18438,0.24564 0.35541,0.50774 0.5,0.78125 0.14012,0.26505 0.27614,0.52473 0.375,0.8125 0.01041,0.03078 0.02133,0.06274 0.03125,0.09375 0.09046,0.27808 0.1388,0.5794 0.1875,0.875 0.053,0.318 0.094,0.634 0.094,0.969 l 0,72 c 0,3.324 -2.676,6 -6,6 l -72,0 z" />
    </g>
    <path
       style="fill:url(#aa);fill-rule:evenodd;stroke-width:0.625;stroke-linejoin:round"
       inkscape:connector-curvature="0"
       id="path131"
       d="m 31.082,5.353 8.7051,5.2741 -8.7238,5.1053 c 1.0223,-1.7301 0.73512,-8.4659 0.01875,-10.379 z" />
  </g>
</svg>
